<svg xmlns="http://www.w3.org/2000/svg" xmlns:xlink="http://www.w3.org/1999/xlink" xml:space="preserve" style="shape-rendering:geometricPrecision;text-rendering:geometricPrecision;image-rendering:optimizeQuality;" viewBox="0 0 6827 8533.75" x="0px" y="0px" fill-rule="evenodd" clip-rule="evenodd"><defs><style type="text/css">
   
    .fil1 {fill:none}
    .fil0 {fill:black;fill-rule:nonzero}
   
  </style></defs><g><path class="fil0" d="M3676 1118c44,12 87,26 128,43 42,17 83,38 122,60l180 -180c31,-31 82,-31 113,0l258 258c31,31 31,82 0,113l-180 180c23,39 43,80 60,122 17,42 32,85 44,129l254 0c44,0 80,36 80,80l0 365c0,44 -36,80 -80,80l-254 0c-12,44 -26,87 -43,128 -17,42 -38,83 -60,122l180 180c31,31 31,82 0,113l-258 258c-31,31 -82,31 -113,0l-180 -180c-39,23 -80,43 -122,60 -42,17 -85,32 -129,44l0 254c0,44 -36,80 -80,80l-365 0c-44,0 -80,-36 -80,-80l0 -254c-44,-12 -87,-26 -128,-43 -42,-17 -83,-38 -122,-60l-180 180c-31,31 -82,31 -113,0l-258 -258c-31,-31 -31,-82 0,-113l180 -180c-23,-39 -43,-80 -60,-122 -17,-42 -32,-85 -44,-129l-254 0c-44,0 -80,-36 -80,-80l0 -365c0,-44 36,-80 80,-80l254 0c12,-44 26,-87 44,-128 17,-42 38,-83 60,-122l-180 -180c-31,-31 -31,-82 0,-113l258 -258c31,-31 82,-31 113,0l180 180c39,-23 80,-43 122,-60 42,-17 84,-32 128,-43l0 -254c0,-44 36,-80 80,-80l365 0c44,0 80,36 80,80l0 254zm67 191c-51,-21 -104,-37 -159,-48 -39,-6 -68,-39 -68,-79l0 -237 -205 0 0 237 0 0c0,37 -26,71 -65,78 -57,11 -111,28 -163,49 -51,21 -100,47 -145,77 -31,25 -77,23 -106,-6l-168 -168 -145 145 168 168 0 0c26,26 31,69 10,101 -31,47 -58,97 -81,150 -21,51 -37,104 -48,159 -6,39 -39,68 -79,68l-237 0 0 205 237 0 0 0c37,0 71,26 78,65 11,57 28,111 49,163 21,51 47,100 77,145 25,31 23,77 -6,106l-168 168 145 145 168 -168 0 0c26,-26 69,-31 101,-10 47,31 97,58 150,81 51,21 104,37 159,48 39,6 68,39 68,79l0 237 205 0 0 -237 0 0c0,-37 26,-71 65,-78 57,-11 111,-28 163,-49 51,-21 100,-47 145,-77 31,-25 77,-23 106,6l168 168 145 -145 -168 -168 0 0c-26,-26 -31,-69 -10,-101 31,-47 58,-97 81,-150 21,-51 37,-104 48,-159 6,-39 39,-68 79,-68l237 0 0 -205 -237 0 0 0c-37,0 -71,-26 -78,-65 -11,-57 -28,-111 -49,-163 -21,-51 -47,-100 -77,-145 -25,-31 -23,-77 6,-106l168 -168 -145 -145 -168 168 0 0c-26,26 -69,31 -101,10 -47,-31 -97,-58 -150,-81z"/><path class="fil0" d="M3413 1500c167,0 319,68 428,177 110,110 177,261 177,428 0,167 -68,319 -177,428 -110,110 -261,177 -428,177 -167,0 -319,-68 -428,-177 -110,-110 -177,-261 -177,-428 0,-167 68,-319 177,-428 110,-110 261,-177 428,-177zm315 291c-81,-81 -192,-131 -315,-131 -123,0 -235,50 -315,131 -81,81 -131,192 -131,315 0,123 50,235 131,315 81,81 192,131 315,131 123,0 235,-50 315,-131 81,-81 131,-192 131,-315 0,-123 -50,-235 -131,-315z"/><path class="fil0" d="M1265 4595c0,1 -136,242 -231,612 -4,37 -21,204 -21,257 0,24 14,52 24,70 542,232 1458,348 2376,348 918,0 1833,-116 2376,-348 10,-18 24,-46 24,-70 0,-53 -17,-220 -21,-257 -95,-369 -230,-611 -231,-612 -2,-3 -3,-6 -4,-9 -83,-180 -242,-332 -451,-457 -228,-136 -516,-237 -830,-303 -119,70 -247,125 -382,163 -141,40 -290,61 -443,61 -159,0 -314,-23 -460,-66 -141,-41 -273,-101 -395,-176 -323,60 -619,160 -854,298 -217,128 -383,288 -472,483 -1,2 -2,4 -3,5l0 0zm-387 577c98,-384 241,-643 247,-653 104,-224 291,-407 534,-550 261,-154 586,-261 937,-324l0 0c19,-3 40,0 57,11 117,75 245,134 381,174 131,39 271,59 415,59 139,0 273,-19 400,-55 130,-37 252,-90 365,-159 17,-12 39,-18 62,-13 343,69 659,178 910,328 236,140 417,316 515,527 6,11 149,270 247,653l0 0c1,4 2,8 2,12 0,1 23,216 23,280 0,75 -47,153 -61,174 -8,14 -21,26 -37,33 -560,248 -1512,372 -2462,372 -950,0 -1902,-124 -2462,-372l0 0c-13,-6 -24,-15 -33,-27 0,0 -65,-92 -65,-180 0,-59 19,-242 23,-275 0,-6 1,-11 2,-17z"/></g><rect class="fil1" width="6827" height="6827"/></svg>