<svg xmlns="http://www.w3.org/2000/svg" xmlns:xlink="http://www.w3.org/1999/xlink" version="1.1" viewBox="0 0 96 120" x="0px" y="0px"><path d="M72 52c-1.1 0-2-0.9-2-2v-3c0-1.1 0.9-2 2-2s2 0.9 2 2v3c0 1.1-0.9 2-2 2z" fill="#000000"/><path d="M72 31c-1.1 0-2-0.9-2-2v-3c0-1.1 0.9-2 2-2s2 0.9 2 2v3c0 1.1-0.9 2-2 2z" fill="#000000"/><path d="M84 40h-3c-1.1 0-2-0.9-2-2s0.9-2 2-2h3c1.1 0 2 0.9 2 2s-0.9 2-2 2z" fill="#000000"/><path d="M63 40h-3c-1.1 0-2-0.9-2-2s0.9-2 2-2h3c1.1 0 2 0.9 2 2s-0.9 2-2 2z" fill="#000000"/><path d="M80.484 48.484c-0.512 0-1.024-0.196-1.416-0.584l-2.132-2.116c-0.776-0.78-0.776-2.056 0-2.828 0.78-0.78 2.052-0.78 2.828 0l2.132 2.116c0.776 0.78 0.776 2.056 0 2.828-0.388 0.388-0.9 0.584-1.412 0.584z" fill="#000000"/><path d="M65.644 33.644c-0.512 0-1.024-0.2-1.416-0.584l-2.132-2.128c-0.776-0.772-0.776-2.048 0-2.828 0.78-0.772 2.052-0.772 2.828 0l2.132 2.128c0.78 0.78 0.78 2.052 0 2.828-0.388 0.388-0.9 0.584-1.412 0.584z" fill="#000000"/><path d="M78.36 33.636c-0.512 0-1.024-0.2-1.416-0.584-0.78-0.776-0.78-2.052 0-2.828l2.124-2.12c0.776-0.772 2.052-0.772 2.828 0 0.78 0.78 0.78 2.060 0 2.828l-2.124 2.12c-0.388 0.388-0.9 0.584-1.412 0.584z" fill="#000000"/><path d="M63.512 48.484c-0.512 0-1.024-0.196-1.416-0.584-0.776-0.772-0.776-2.048 0-2.828l2.124-2.116c0.78-0.78 2.048-0.78 2.828 0 0.78 0.772 0.78 2.048 0 2.828l-2.124 2.116c-0.388 0.388-0.9 0.584-1.412 0.584z" fill="#000000"/><path d="M72 49c-6.072 0-11-4.928-11-11s4.928-11 11-11 11 4.928 11 11-4.928 11-11 11zM72 31c-3.86 0-7 3.14-7 7s3.14 7 7 7 7-3.14 7-7-3.14-7-7-7z" fill="#000000"/><path d="M94 66h-92c-1.104 0-2-0.9-2-2v-52c0-1.1 0.896-2 2-2h92c1.1 0 2 0.9 2 2v52c0 1.1-0.9 2-2 2zM4 62h88v-48h-88v48z" fill="#000000"/><path d="M72 86h-48c-1.104 0-2-0.9-2-2s0.896-2 2-2h4.416c4.18 0 7.584-3.408 7.584-7.584v-8.416c0-1.1 0.896-2 2-2s2 0.9 2 2v8.416c0 2.908-1.068 5.56-2.832 7.584h22.504c-2.196-2.016-3.668-4.648-3.668-7.584v-8.416c0-1.1 0.896-2 2-2s2 0.9 2 2v8.416c0 4.084 5.268 7.584 9.584 7.584h2.412c1.1 0 2 0.9 2 2s-0.9 2-2 2z" fill="#000000"/><path d="M18 56c-1.104 0-2-0.9-2-2v-8c0-1.1 0.896-2 2-2s2 0.9 2 2v8c0 1.1-0.896 2-2 2z" fill="#000000"/><path d="M26 56c-1.104 0-2-0.9-2-2v-28c0-1.1 0.896-2 2-2s2 0.9 2 2v28c0 1.1-0.896 2-2 2z" fill="#000000"/><path d="M34 56c-1.104 0-2-0.9-2-2v-16c0-1.1 0.896-2 2-2s2 0.9 2 2v16c0 1.1-0.896 2-2 2z" fill="#000000"/><path d="M42 56c-1.104 0-2-0.9-2-2v-20c0-1.1 0.896-2 2-2s2 0.9 2 2v20c0 1.1-0.896 2-2 2z" fill="#000000"/><path d="M50 56c-1.104 0-2-0.9-2-2v-32c0-1.1 0.896-2 2-2 1.1 0 2 0.9 2 2v32c0 1.1-0.9 2-2 2z" fill="#000000"/></svg>