<svg xmlns:dc="http://purl.org/dc/elements/1.1/" xmlns:cc="http://creativecommons.org/ns#" xmlns:rdf="http://www.w3.org/1999/02/22-rdf-syntax-ns#" xmlns:svg="http://www.w3.org/2000/svg" xmlns="http://www.w3.org/2000/svg" xmlns:sodipodi="http://sodipodi.sourceforge.net/DTD/sodipodi-0.dtd" xmlns:inkscape="http://www.inkscape.org/namespaces/inkscape" version="1.1" x="0px" y="0px" viewBox="0 0 100 125"><g transform="translate(0,-952.36218)"><path style="" d="m 50.569185,964.18849 c -10.87817,0 -19.688371,8.81021 -19.688371,19.68835 0,8.73135 5.67417,16.12636 13.541676,18.70876 -20.077043,2.9706 -35.4829491,20.2608 -35.4829491,41.1644 l 41.6296441,0 41.629633,0 c 0,-20.9035 -15.405897,-38.1938 -35.482944,-41.1644 7.867507,-2.5824 13.541681,-9.97741 13.541681,-18.70876 0,-10.87814 -8.810207,-19.68835 -19.68837,-19.68835 z m 0,39.52361 c 1.908889,0 3.452613,1.5686 3.452613,3.4773 0,1.6701 -1.167586,3.0327 -2.742657,3.3549 l 1.689475,10.285 2.375925,14.4479 0,0.1468 -0.147321,0 -2.228604,2.3754 -2.399431,2.4734 -2.375144,-2.4734 -2.277973,-2.3754 -0.146533,0 0,-0.1468 2.424506,-14.4479 1.665187,-10.285 c -1.553135,-0.3391 -2.718369,-1.7006 -2.718369,-3.3549 0,-1.9087 1.519436,-3.4773 3.428326,-3.4773 z" fill="#000000" fill-opacity="1" stroke="none"/></g><text x="0" y="115" fill="#000000" font-size="5px" font-weight="bold" font-family="'Helvetica Neue', Helvetica, Arial-Unicode, Arial, Sans-serif">Created by Dalpat Prajapati</text><text x="0" y="120" fill="#000000" font-size="5px" font-weight="bold" font-family="'Helvetica Neue', Helvetica, Arial-Unicode, Arial, Sans-serif">from the Noun Project</text></svg>