<svg xmlns="http://www.w3.org/2000/svg" xmlns:xlink="http://www.w3.org/1999/xlink" version="1.1" x="0px" y="0px" viewBox="0 0 500 625" enable-background="new 0 0 500 500" xml:space="preserve"><g><path fill="#000000" d="M463.5,462.5h-425v-425h425V462.5z M63.5,437.5h375v-375h-375V437.5z"/></g><g><rect x="101" y="100" fill="#000000" width="37" height="40.158"/></g><g><rect x="164" y="100" fill="#000000" width="144.05" height="40.158"/></g><g><rect x="101" y="187.5" fill="#000000" width="100" height="25"/></g><g><rect x="238.5" y="187.5" fill="#000000" width="153.5" height="25"/></g><g><rect x="101" y="231.25" fill="#000000" width="37" height="25"/></g><g><rect x="164" y="231.25" fill="#000000" width="87" height="25"/></g><g><rect x="282.587" y="231.25" fill="#000000" width="123.413" height="25"/></g><g><rect x="101" y="275" fill="#000000" width="112.543" height="25"/></g><g><rect x="238.5" y="275" fill="#000000" width="122.438" height="25"/></g><g><rect x="101" y="318.75" fill="#000000" width="63" height="25"/></g><g><rect x="190.372" y="318.75" fill="#000000" width="135.715" height="25"/></g><g><rect x="101" y="362.5" fill="#000000" width="143.583" height="25"/></g><g><rect x="265.738" y="362.5" fill="#000000" width="42.312" height="25"/></g></svg>