<svg xmlns="http://www.w3.org/2000/svg" xmlns:xlink="http://www.w3.org/1999/xlink" version="1.1" x="0px" y="0px" viewBox="0 0 100 125" enable-background="new 0 0 100 100" xml:space="preserve"><path fill="#000000" d="M100,100H0V0h100V100z M96,4H4v92h92V4z"/><path fill="#000000" d="M177.311,43H193v-5h-10V28h10V17.199l5-3.448l5,3.448V28h15.69l4.31,5l-4.31,5H203v5h10v10h-10v14  c0,3.78,0,9,1,10s3.078,2,5.333,2c1.667,0,4.798-1,4.798-1s3.269-1.346,4.869-2l2,7c-1.964,0.945-5.022,2-7,3  c-2.014,1.019-4.813,1-7.502,1c-4.436,0-8.424-2.005-10.239-4.514C194.44,79.979,193,75.78,193,69.892V53h-15.689L173,48L177.311,43  z"/><path fill="#000000" d="M248,100H148V0h100V100z M244,4h-92v92h92V4z"/><path fill="#000000" d="M360.689,57.751H345v5h10v10h-10v10.801L340,87l-5-3.448V72.751h-15.69l-4.31-5l4.31-5H335v-5h-10v-10h10  v-14c0-3.78,0-9-1-10s-3.078-2-5.333-2c-1.667,0-4.798,1-4.798,1s-3.269,1.346-4.869,2l-2-7c1.964-0.945,5.022-2,7-3  c2.014-1.019,4.813-1,7.502-1c4.436,0,8.424,2.005,10.239,4.514C343.56,20.772,345,24.971,345,30.859v16.892h15.689l4.311,5  L360.689,57.751z"/><path fill="#000000" d="M390,100H290V0h100V100z M386,4h-92v92h92V4z"/><path fill="#000000" d="M470,52.751l4.311-5H490V30.859c0-5.889,1.44-10.087,3.259-12.595c1.815-2.509,5.804-4.514,10.239-4.514  c2.688,0,5.488-0.019,7.502,1c1.978,1,5.036,2.055,7,3l-2,7c-1.601-0.654-4.869-2-4.869-2s-3.131-1-4.798-1  c-2.255,0-4.333,1-5.333,2s-1,6.22-1,10v14h10v10h-10v5h15.69l4.31,5l-4.31,5H500v10.801L495,87l-5-3.448V72.751h-10v-10h10v-5  h-15.689L470,52.751z"/><path fill="#000000" d="M545,100H445V0h100V100z M541,4h-92v92h92V4z"/><rect x="10" y="55" fill="#000000" width="35" height="35"/><rect x="55" y="55" fill="#000000" width="15" height="15"/><rect x="75" y="55" fill="#000000" width="15" height="15"/><rect x="55" y="75" fill="#000000" width="15" height="15"/><rect x="75" y="75" fill="#000000" width="15" height="15"/><path fill="#000000" d="M70,45H10V10h60V45z M25,15H15v10h10V15z M40,15H30v10h10V15z M25,30H15v10h10V30z M40,30H30v10h10V30z"/><rect x="75" y="25" fill="#000000" width="15" height="20"/><rect x="75" y="10" fill="#000000" width="15" height="10"/></svg>